<svg id="Layer_1" data-name="Layer 1" xmlns="http://www.w3.org/2000/svg" viewBox="0 0 64 64" fill="#e4e9ec"><title>spy</title><path d="M48.9,42.43h-.34a1.05,1.05,0,0,1-.94-1.52A4.08,4.08,0,0,0,44,35H39.36a5.9,5.9,0,0,0-5.28,3.26L33,40.5a1.08,1.08,0,0,1-1.93,0l-1.12-2.24A5.9,5.9,0,0,0,24.64,35H20a4.08,4.08,0,0,0-3.65,5.91,1.05,1.05,0,0,1-.94,1.52H15.1A9.1,9.1,0,0,0,6,51.53v5.76C6,59.34,17.64,61,32,61s26-1.66,26-3.71V51.53A9.1,9.1,0,0,0,48.9,42.43ZM32,55a2,2,0,1,1,2-2A2,2,0,0,1,32,55Z"/><path d="M52,18.37a2.15,2.15,0,0,0-2.08-1.87H46.8A1.86,1.86,0,0,1,45.05,15L43.39,8.46A6.86,6.86,0,0,0,36.93,3c-2.43,0-4.14,2.7-3.37,5.29l0,.06a1.05,1.05,0,0,1-.9,1.4,1,1,0,0,1-.9-.73l-.56-1.89a5.6,5.6,0,0,0-3.79-4A5.12,5.12,0,0,0,21.37,7l-2.32,8.06a1.85,1.85,0,0,1-1.73,1.42H14.11A2.15,2.15,0,0,0,12,18.37,2.18,2.18,0,0,0,14,21H50A2.18,2.18,0,0,0,52,18.37Z"/><path d="M24,31h2a4,4,0,0,0,4-4,2,2,0,0,1,4,0,4,4,0,0,0,4,4h1.12A4.88,4.88,0,0,0,44,26.12,1.12,1.12,0,0,1,45.12,25a.88.88,0,0,0,.88-.88v-.24a.88.88,0,0,0-.88-.88H18.88a.88.88,0,0,0-.88.88v.24a.88.88,0,0,0,.88.88A1.12,1.12,0,0,1,20,26.12V27A4,4,0,0,0,24,31Z"/></svg>